{"title":"IMPACT!.WRESTLING.2018.01.04.HDTV.XviD-FICEK9","magnet":"magnet:?xt=urn:btih:83e33d3d996e4b44575ede4c3e5756dc29a01574&dn=IMPACT%21.WRESTLING.2018.01.04.HDTV.XviD-FICEK9&tr=udp%3A%2F%2Ftracker.leechers-paradise.org%3A6969&tr=udp%3A%2F%2Fzer0day.ch%3A1337&tr=udp%3A%2F%2Fopen.demonii.com%3A1337&tr=udp%3A%2F%2Ftracker.coppersurfer.tk%3A6969&tr=udp%3A%2F%2Fexodus.desync.com%3A6969","uploader":"FICEK9","categoryP":"video","categoryS":"tv_shows","size":"939233106","seeders":"0","leechers":"0","description":"   General\r\n      Complete name : IMPACT!.WRESTLING.2018.01.04.HDTV.XviD-FICEK9.avi\r\n      Format : AVI\r\n      Format/Info : Audio Video Interleave\r\n      File size : 896 MiB\r\n      Duration : 1h 31mn\r\n      Overall bit rate mode : Variable\r\n      Overall bit rate : 1 371 Kbps\r\n      Writing application : Lavf57.41.100\r\n   Video #0\r\n      ID : 0\r\n      Format : xvid\r\n      Codec ID : xvid\r\n      Duration : 1h 31mn\r\n      Bit rate : 1 266 Kbps\r\n      Width : 720 pixels\r\n      Height : 576 pixels\r\n      Display aspect ratio : 16:9\r\n      Frame rate : 29.970 fps\r\n      Standard : PAL\r\n      Bits/(Pixel*Frame) : 0.102\r\n      Stream size : 827 MiB (92%)\r\n   Audio #1\r\n      ID : 1\r\n      Format : MPEG Audio\r\n      Format version : Version 1\r\n      Format profile : Layer 3\r\n      Mode : Joint stereo\r\n      Mode extension : MS Stereo\r\n      Codec ID : 55\r\n      Codec ID/Hint : MP3\r\n      Duration : 1h 31mn\r\n      Bit rate mode : Variable\r\n      Bit rate : 91.2 Kbps\r\n      Channel(s) : 2 channels\r\n      Sampling rate : 48.0 KHz\r\n      Compression mode : Lossy\r\n      Stream size : 59.5 MiB (7%)\r\n      Alignment : Aligned on interleaves\r\n      Interleave, duration : 24 ms (0.72 video frame)","last_updated":"2018-04-30T12:03:30.291Z","parsed":{"xt":"urn:btih:83e33d3d996e4b44575ede4c3e5756dc29a01574","dn":"IMPACT!.WRESTLING.2018.01.04.HDTV.XviD-FICEK9","tr":["udp://exodus.desync.com:6969","udp://open.demonii.com:1337","udp://tracker.coppersurfer.tk:6969","udp://tracker.leechers-paradise.org:6969","udp://zer0day.ch:1337"],"infoHash":"83e33d3d996e4b44575ede4c3e5756dc29a01574","infoHashBuffer":{"type":"Buffer","data":[131,227,61,61,153,110,75,68,87,94,222,76,62,87,86,220,41,160,21,116]},"name":"IMPACT!.WRESTLING.2018.01.04.HDTV.XviD-FICEK9","announce":["udp://exodus.desync.com:6969","udp://open.demonii.com:1337","udp://tracker.coppersurfer.tk:6969","udp://tracker.leechers-paradise.org:6969","udp://zer0day.ch:1337"],"urlList":[]}}